<svg width="16" height="12" viewBox="0 0 16 12" fill="none"
    xmlns="http://www.w3.org/2000/svg">
    <g clip-path="url(#clip0_319_5053)">
        <g clip-path="url(#clip1_319_5053)">
            <path d="M15.5556 -1H0.444444C-0.537396 -1 -1.33333 -0.164265 -1.33333 0.866667V11.1333C-1.33333 12.1643 -0.537396 13 0.444444 13H15.5556C16.5374 13 17.3333 12.1643 17.3333 11.1333V0.866667C17.3333 -0.164265 16.5374 -1 15.5556 -1Z" fill="#22438B"/>
            <path fill-rule="evenodd" clip-rule="evenodd" d="M1.33333 -0.0666504L-0.467556 -0.0423837L-0.444445 1.80002L14.6507 12.0928L16.4613 12.0583L16.4276 10.2271L1.33333 -0.0666504Z" fill="white"/>
            <path fill-rule="evenodd" clip-rule="evenodd" d="M0.444444 -0.0666504L-0.444445 0.866683L15.5556 12.0667L16.4444 11.1334L0.444444 -0.0666504Z" fill="#C7152A"/>
            <path fill-rule="evenodd" clip-rule="evenodd" d="M14.6667 -0.0666504H16.4444V1.80002C16.4444 1.80002 6 8.70295 1.34933 12.0928C1.29333 12.1339 -0.426668 12.0956 -0.426668 12.0956L-0.564445 10.3214L14.6667 -0.0666504Z" fill="white"/>
            <path fill-rule="evenodd" clip-rule="evenodd" d="M15.5938 -0.0927734L16.4444 0.866693L0.444444 12.0667L-0.444445 11.1334L15.5938 -0.0927734Z" fill="#C7152A"/>
            <path fill-rule="evenodd" clip-rule="evenodd" d="M5.77778 -0.0666504H10.2222V3.66668H16.4444V8.33335H10.2222V12.0667H5.77778V8.33335H-0.444445V3.66668H5.77778V-0.0666504Z" fill="white"/>
            <path fill-rule="evenodd" clip-rule="evenodd" d="M6.66667 -0.0666504H9.33333V4.60002H16.4444V7.40002H9.33333V12.0667H6.66667V7.40002H-0.444445V4.60002H6.66667V-0.0666504Z" fill="#C7152A"/>
            <path d="M15.5556 -0.533325H0.444444C-0.291936 -0.533325 -0.888889 0.0934762 -0.888889 0.866675V11.1333C-0.888889 11.9065 -0.291936 12.5333 0.444444 12.5333H15.5556C16.2919 12.5333 16.8889 11.9065 16.8889 11.1333V0.866675C16.8889 0.0934762 16.2919 -0.533325 15.5556 -0.533325Z" stroke="black" stroke-opacity="0.1"/>
        </g>
    </g>
    <defs>
        <clipPath id="clip0_319_5053">
            <rect width="16" height="12" fill="white"/>
        </clipPath>
        <clipPath id="clip1_319_5053">
            <rect width="18.6667" height="14" fill="white" transform="translate(-1.33333 -1)"/>
        </clipPath>
    </defs>
</svg>
    